HIERARCHY
ROOT Hips
{
	OFFSET 0.00000 0.00000 0.00000
	CHANNELS 6 Xposition Yposition Zposition Zrotation Yrotation Xrotation 
	JOINT RightUpLegDummy
	{
		OFFSET 0 0 0
		CHANNELS 3 Zrotation Yrotation Xrotation
		JOINT RightUpLeg
		{
			OFFSET -3.52197 -3.41223 0.04002
			CHANNELS 3 Zrotation Yrotation Xrotation
			JOINT RightLeg
			{
				OFFSET 0.00006 -17.42390 1.60435
				CHANNELS 3 Zrotation Yrotation Xrotation
				JOINT RightFoot
				{
					OFFSET 0.06154 -16.50078 -1.63900
					CHANNELS 3 Zrotation Yrotation Xrotation
					JOINT RightToes
					{
						OFFSET 0.00298 -1.73825 3.34613
						CHANNELS 3 Zrotation Yrotation Xrotation
						End Site
						{
							OFFSET 0.00480 -0.05416 3.85043
						}
					}
				}
			}
		}
	}
	JOINT SpineDummy
	{
		OFFSET 0 0 0
		CHANNELS 3 Zrotation Yrotation Xrotation
		JOINT Spine
		{
			OFFSET 0.00000 4.68130 0.00000
			CHANNELS 3 Zrotation Yrotation Xrotation
			JOINT Spine1
			{
				OFFSET -0.00000 10.10138 0.05002
				CHANNELS 3 Zrotation Yrotation Xrotation
				JOINT HEadDummy
				{
					OFFSET 0 0 0
					CHANNELS 3 Zrotation Yrotation Xrotation
					JOINT Head
					{
						OFFSET -0.00000 3.43865 0.00438
						CHANNELS 3 Zrotation Yrotation Xrotation
						End Site
						{
							OFFSET -0.11417 5.02924 0.98962
						}
					}
				}
				JOINT LeftShoulder1Dummy
				{
					OFFSET 0 0 0
					CHANNELS 3 Zrotation Yrotation Xrotation
					JOINT LeftShoulder1
					{
						OFFSET 3.53937 -0.14262 -0.08662
						CHANNELS 3 Zrotation Yrotation Xrotation
						JOINT LeftArm
						{
							OFFSET 4.04833 -0.00133 0.12681
							CHANNELS 3 Zrotation Yrotation Xrotation
							JOINT LeftForeArm
							{
								OFFSET 10.33880 -0.01036 -0.55515
								CHANNELS 3 Zrotation Yrotation Xrotation
								JOINT LeftHand
								{
									OFFSET 8.69677 0.07543 0.40060
									CHANNELS 3 Zrotation Yrotation Xrotation
									End Site
									{
										OFFSET 5.28377 -0.21905 0.59205
									}
								}
							}
						}
					}
				}
				JOINT RightShoulderDummy
				{
					OFFSET 0 0 0
					CHANNELS 3 Zrotation Yrotation Xrotation
					JOINT RightShoulder
					{
						OFFSET -3.53937 -0.14262 -0.08660
						CHANNELS 3 Zrotation Yrotation Xrotation
						JOINT RightArm
						{
							OFFSET -4.04833 -0.00133 0.12683
							CHANNELS 3 Zrotation Yrotation Xrotation
							JOINT RightForeArm
							{
								OFFSET -10.37987 -0.01039 -0.55511
								CHANNELS 3 Zrotation Yrotation Xrotation
								JOINT RightHand
								{
									OFFSET -8.67398 0.07538 0.40058
									CHANNELS 3 Zrotation Yrotation Xrotation
									End Site
									{
										OFFSET -5.24810 -0.21916 0.59204
									}
								}
							}
						}
					}
				}
			}
		}
	}
	JOINT LeftUpLegDummy
	{
		OFFSET 0 0 0
		CHANNELS 3 Zrotation Yrotation Xrotation
		JOINT LeftUpLeg
		{
			OFFSET 3.52197 -3.41223 0.04002
			CHANNELS 3 Zrotation Yrotation Xrotation
			JOINT LeftLeg
			{
				OFFSET -0.00012 -17.42399 1.60337
				CHANNELS 3 Zrotation Yrotation Xrotation
				JOINT LeftFoot
				{
					OFFSET -0.09972 -16.50070 -1.63802
					CHANNELS 3 Zrotation Yrotation Xrotation
					JOINT LeftToes
					{
						OFFSET -0.01575 -1.73823 3.34611
						CHANNELS 3 Zrotation Yrotation Xrotation
						End Site
						{
							OFFSET 0.03150 -0.01868 3.85031
						}
					}
				}
			}
		}
	}
}
MOTION
Frames: 19
Frame Time: 0.033333
-68.2406 41.0230 -2.1917 28.9432 82.7201 31.4850 0.0000 0.0000 0.0000 -2.9229 -6.3855 2.2207 -1.6073 -8.2031 5.3906 4.0816 -0.1539 -8.1154 -0.0000 -0.0000 0.0000 0.0000 0.0000 0.0000 -7.8714 -1.4009 -13.4218 5.6441 -2.4492 20.0638 0.0000 0.0000 0.0000 -2.6680 5.9036 -3.2968 0.0000 0.0000 0.0000 -20.6061 -3.1533 1.7990 -58.3395 -12.4772 -15.8109 -12.8938 -4.1113 31.9171 15.8240 -2.4654 -1.0504 0.0000 0.0000 0.0000 19.8922 1.2395 1.2508 58.0402 12.5308 3.5186 9.3978 13.8393 18.0185 -6.0529 1.5126 -0.3463 0.0000 0.0000 0.0000 -5.6369 -2.6322 -2.9185 -0.2466 17.6997 1.9767 3.3822 -0.2656 -1.6358 -0.0000 -0.0000 -0.0000
-68.2598 41.0197 -2.1894 29.0043 82.6370 31.5247 0.0000 0.0000 0.0000 -3.0045 -6.4762 2.1387 -1.5496 -8.0365 5.5241 4.0300 -0.1504 -8.1570 -0.0000 -0.0000 0.0000 0.0000 0.0000 0.0000 -8.0417 -1.3746 -13.4004 5.8005 -2.4540 20.0526 0.0000 0.0000 0.0000 -2.6633 6.1182 -3.3614 0.0000 0.0000 0.0000 -20.5719 -3.1082 1.7847 -58.4343 -12.3796 -16.3715 -12.8195 -3.7728 32.4692 15.8361 -2.4343 -1.0494 0.0000 0.0000 0.0000 19.9261 1.2805 1.2631 57.9725 12.6078 3.2902 9.4614 13.7295 18.2648 -5.9604 1.4589 -0.3384 0.0000 0.0000 0.0000 -5.6662 -2.6693 -2.9489 -0.2436 17.7255 2.0168 3.3639 -0.2644 -1.6326 -0.0000 -0.0000 -0.0000
-68.2988 41.0149 -2.1816 28.8614 82.5383 31.3215 0.0000 0.0000 0.0000 -3.0821 -6.5997 2.0473 -1.4474 -7.8152 5.7030 3.9164 -0.1430 -8.2092 -0.0000 -0.0000 0.0000 0.0000 0.0000 0.0000 -8.3686 -1.3268 -13.1925 6.1595 -2.4922 19.8306 0.0000 0.0000 0.0000 -2.4223 6.7144 -3.6467 0.0000 0.0000 0.0000 -20.5347 -3.0893 1.7773 -58.6090 -12.0036 -17.0371 -12.7138 -3.4254 33.1487 15.7399 -2.5076 -1.0522 0.0000 0.0000 0.0000 19.9452 1.3945 1.2941 57.8949 12.6296 3.0829 9.5200 13.6374 18.3384 -5.8517 1.2524 -0.3233 0.0000 0.0000 0.0000 -5.6884 -2.7352 -3.0404 -0.1390 17.8534 2.2238 3.2770 -0.2588 -1.6764 -0.0000 -0.0000 -0.0000
-68.3465 41.0106 -2.1687 28.5202 82.5167 30.8684 0.0000 0.0000 0.0000 -3.0585 -6.6386 2.0594 -1.3905 -7.7424 5.7843 3.8209 -0.1367 -8.2502 -0.0000 -0.0000 0.0000 0.0000 0.0000 0.0000 -8.4085 -1.3204 -12.8241 6.1499 -2.4831 19.4884 0.0000 0.0000 0.0000 -2.1350 6.7957 -3.7880 0.0000 0.0000 0.0000 -20.3370 -3.0568 1.7564 -58.8268 -11.4243 -17.2968 -12.6713 -3.4038 33.3256 15.4871 -2.6439 -1.0520 0.0000 0.0000 0.0000 20.1255 1.5104 1.3330 57.7726 12.7016 2.7705 9.6461 13.4551 18.4846 -5.7695 1.0633 -0.3107 0.0000 0.0000 0.0000 -5.6660 -2.7795 -3.1482 0.0536 17.9791 2.5700 3.1561 -0.2511 -1.7581 -0.0000 -0.0000 -0.0000
-68.3955 41.0074 -2.1529 28.1584 82.5277 30.3616 0.0000 0.0000 0.0000 -2.9723 -6.5889 2.1650 -1.4032 -7.7807 5.7538 3.7818 -0.1341 -8.2823 -0.0000 -0.0000 0.0000 0.0000 0.0000 0.0000 -8.4272 -1.3273 -12.7115 6.0990 -2.4850 19.5720 0.0000 0.0000 0.0000 -1.9778 6.4509 -4.0078 0.0000 0.0000 0.0000 -20.2207 -3.0146 1.7381 -58.9028 -11.0248 -17.2724 -12.6994 -3.4721 33.0976 15.2546 -2.6537 -1.0369 0.0000 0.0000 0.0000 20.2253 1.5103 1.3377 57.7357 13.0025 2.2534 9.8180 13.1613 19.0060 -5.6635 1.0806 -0.3055 0.0000 0.0000 0.0000 -5.6127 -2.7673 -3.1834 0.1927 18.0155 2.8303 3.0646 -0.2449 -1.8069 -0.0000 -0.0000 -0.0000
-68.4425 41.0051 -2.1343 27.9083 82.4593 29.9877 0.0000 0.0000 0.0000 -2.9241 -6.5322 2.2253 -1.4451 -7.7473 5.7541 3.7570 -0.1324 -8.3229 -0.0000 -0.0000 0.0000 0.0000 0.0000 0.0000 -8.5557 -1.3150 -12.7640 6.1175 -2.4757 19.8384 0.0000 0.0000 0.0000 -1.9102 5.9941 -4.1383 0.0000 0.0000 0.0000 -20.2175 -2.9353 1.7168 -58.8266 -10.7853 -17.3215 -12.7377 -3.3475 32.9851 15.2112 -2.5113 -1.0162 0.0000 0.0000 0.0000 20.2685 1.4972 1.3363 57.7586 13.2687 2.3705 9.8372 13.1500 18.9945 -5.5760 1.1767 -0.3046 0.0000 0.0000 0.0000 -5.5756 -2.7248 -3.1398 0.2045 18.0433 2.8753 3.0104 -0.2402 -1.7979 -0.0000 -0.0000 -0.0000
-68.4871 41.0033 -2.1135 27.7679 82.3039 29.7565 0.0000 0.0000 0.0000 -2.9450 -6.5307 2.1721 -1.4725 -7.5810 5.9011 3.7063 -0.1290 -8.3859 -0.0000 -0.0000 0.0000 0.0000 0.0000 0.0000 -8.8680 -1.2516 -12.6232 6.3367 -2.4535 19.7462 0.0000 0.0000 0.0000 -1.8026 6.0156 -4.2143 0.0000 0.0000 0.0000 -20.2504 -2.9333 1.7182 -58.7448 -10.4698 -17.6794 -12.7264 -3.0278 33.2218 15.3388 -2.3959 -1.0105 0.0000 0.0000 0.0000 20.3156 1.5432 1.3507 57.7667 13.1560 3.9307 9.5401 13.7691 17.3620 -5.6237 1.0720 -0.3032 0.0000 0.0000 0.0000 -5.5750 -2.7070 -3.0869 0.1726 18.1540 2.8376 2.9561 -0.2355 -1.7821 -0.0000 -0.0000 -0.0000
-68.5296 41.0026 -2.0950 27.6552 82.1714 29.5378 0.0000 0.0000 0.0000 -2.9839 -6.5782 2.1192 -1.4615 -7.4000 6.0964 3.6448 -0.1249 -8.4441 -0.0000 -0.0000 0.0000 0.0000 0.0000 0.0000 -9.2331 -1.1649 -12.2594 6.6792 -2.4443 19.3554 0.0000 0.0000 0.0000 -1.6862 6.5785 -4.4821 0.0000 0.0000 0.0000 -20.2540 -3.0391 1.7466 -58.7670 -10.0919 -18.2494 -12.6459 -2.6705 33.6236 15.5780 -2.4248 -1.0305 0.0000 0.0000 0.0000 20.3650 1.5518 1.3554 57.7255 12.8454 6.1274 9.1013 14.6125 14.9336 -5.7825 0.7704 -0.3006 0.0000 0.0000 0.0000 -5.5843 -2.7242 -3.0445 0.1944 18.2877 2.8714 2.8867 -0.2299 -1.7897 -0.0000 -0.0000 -0.0000
-68.5718 41.0025 -2.0820 27.5073 82.1356 29.2604 0.0000 0.0000 0.0000 -2.9892 -6.6287 2.1597 -1.4126 -7.3155 6.1717 3.5929 -0.1223 -8.4497 -0.0000 -0.0000 0.0000 0.0000 0.0000 0.0000 -9.4622 -1.1232 -12.0539 6.9244 -2.4719 19.2539 0.0000 0.0000 0.0000 -1.6742 7.3029 -5.0447 0.0000 0.0000 0.0000 -20.2650 -3.0890 1.7606 -58.8163 -9.9270 -18.7981 -12.5158 -2.3056 34.0740 15.9055 -2.5157 -1.0647 0.0000 0.0000 0.0000 20.3578 1.4711 1.3334 57.6768 12.8178 7.0737 8.9496 14.9057 13.9703 -5.8674 0.5912 -0.3000 0.0000 0.0000 0.0000 -5.5720 -2.7486 -2.9978 0.2665 18.3428 2.9476 2.8075 -0.2240 -1.7838 -0.0000 -0.0000 -0.0000
-68.6175 41.0028 -2.0699 27.2655 82.1594 28.9390 0.0000 0.0000 0.0000 -2.9406 -6.6366 2.1924 -1.3589 -7.3243 6.1427 3.5324 -0.1220 -8.4009 -0.0000 -0.0000 0.0000 0.0000 0.0000 0.0000 -9.5449 -1.1378 -12.1553 7.0032 -2.5192 19.5397 0.0000 0.0000 0.0000 -1.7228 7.9026 -5.6234 0.0000 0.0000 0.0000 -20.3020 -2.9838 1.7348 -58.7870 -10.0249 -19.1559 -12.3801 -1.9345 34.5471 16.1548 -2.5545 -1.0870 0.0000 0.0000 0.0000 20.2957 1.4402 1.3223 57.6577 13.0944 6.1670 9.1751 14.5141 15.2486 -5.7780 0.7766 -0.3024 0.0000 0.0000 0.0000 -5.5271 -2.7661 -3.0150 0.3573 18.3300 3.0264 2.7028 -0.2165 -1.7509 -0.0000 -0.0000 -0.0000
-68.6681 41.0033 -2.0522 26.7779 82.1693 28.4494 0.0000 0.0000 0.0000 -2.8353 -6.5894 2.1095 -1.3330 -7.3577 6.1520 3.4456 -0.1216 -8.3480 -0.0000 -0.0000 0.0000 0.0000 0.0000 0.0000 -9.6773 -1.1209 -12.2155 7.1595 -2.5491 19.6446 0.0000 0.0000 0.0000 -1.7279 8.2349 -5.8707 0.0000 0.0000 0.0000 -20.3301 -2.8781 1.7083 -58.7059 -10.0958 -19.3087 -12.3023 -1.7124 34.8430 16.0374 -2.5645 -1.0802 0.0000 0.0000 0.0000 20.2458 1.5433 1.3475 57.6148 13.2382 4.7032 9.4038 14.0153 17.2193 -5.5714 1.2429 -0.3066 0.0000 0.0000 0.0000 -5.4420 -2.7652 -3.1706 0.4760 18.3231 3.2036 2.5658 -0.2070 -1.7473 -0.0000 -0.0000 -0.0000
-68.7178 41.0038 -2.0303 25.8902 82.1161 27.5378 0.0000 0.0000 0.0000 -2.7021 -6.5237 2.0198 -1.3184 -7.3338 6.2174 3.3531 -0.1190 -8.3198 -0.0000 -0.0000 0.0000 0.0000 0.0000 0.0000 -10.0205 -0.9903 -12.0223 7.6470 -2.5516 19.3800 0.0000 0.0000 0.0000 -1.7556 8.0828 -5.7842 0.0000 0.0000 0.0000 -20.3438 -2.9345 1.7242 -58.6659 -9.9913 -19.3237 -12.3165 -1.7821 34.7568 15.5491 -2.6243 -1.0539 0.0000 0.0000 0.0000 20.2385 1.6194 1.3674 57.4627 13.1076 3.9080 9.4471 13.8272 18.3517 -5.2910 1.6739 -0.3070 0.0000 0.0000 0.0000 -5.3185 -2.7123 -3.3593 0.6122 18.3637 3.5111 2.4466 -0.1986 -1.8047 -0.0000 -0.0000 -0.0000
-68.7575 41.0042 -2.0107 24.7495 81.9753 26.2568 0.0000 0.0000 0.0000 -2.6024 -6.4844 2.0873 -1.2834 -7.1931 6.2370 3.2897 -0.1171 -8.2969 -0.0000 -0.0000 0.0000 0.0000 0.0000 0.0000 -10.4860 -0.7777 -11.8802 8.3194 -2.5272 19.2929 0.0000 0.0000 0.0000 -1.8730 7.4507 -5.6158 0.0000 0.0000 0.0000 -20.3381 -3.0703 1.7601 -58.7105 -9.9341 -19.2205 -12.3716 -2.0261 34.4384 15.1386 -2.7154 -1.0364 0.0000 0.0000 0.0000 20.2692 1.5165 1.3414 57.2062 13.0230 3.6090 9.4651 13.7635 18.7208 -4.9922 1.8029 -0.2934 0.0000 0.0000 0.0000 -5.1953 -2.5984 -3.3866 0.7082 18.4705 3.7889 2.3967 -0.1947 -1.8718 -0.0000 -0.0000 -0.0000
-68.7869 41.0043 -1.9954 23.7917 81.7760 25.0974 0.0000 0.0000 0.0000 -2.5640 -6.4672 2.2552 -1.2477 -6.9745 6.2054 3.2651 -0.1174 -8.2676 -0.0000 -0.0000 0.0000 0.0000 0.0000 0.0000 -10.8121 -0.5941 -12.0231 8.7301 -2.4604 19.6538 0.0000 0.0000 0.0000 -1.9073 6.8304 -5.5299 0.0000 0.0000 0.0000 -20.2169 -3.1093 1.7631 -58.8325 -10.0986 -19.0733 -12.3881 -2.1861 34.3160 15.1795 -2.7632 -1.0452 0.0000 0.0000 0.0000 20.3615 1.3542 1.3023 56.9577 13.1594 3.0394 9.6184 13.5034 19.1641 -4.8689 1.6539 -0.2806 0.0000 0.0000 0.0000 -5.1177 -2.4775 -3.2551 0.7413 18.6326 3.9161 2.3840 -0.1933 -1.9009 -0.0000 -0.0000 -0.0000
-68.8156 41.0039 -1.9824 23.2453 81.6147 24.4126 0.0000 0.0000 0.0000 -2.5390 -6.4334 2.3328 -1.2549 -6.8154 6.2238 3.2572 -0.1184 -8.2500 -0.0000 -0.0000 0.0000 0.0000 0.0000 0.0000 -10.8826 -0.5073 -12.1870 8.7236 -2.3657 19.9689 0.0000 0.0000 0.0000 -1.7008 6.6628 -5.5304 0.0000 0.0000 0.0000 -19.9527 -3.0507 1.7313 -58.9771 -10.3149 -19.0137 -12.3524 -2.2098 34.4888 15.4515 -2.7673 -1.0651 0.0000 0.0000 0.0000 20.4675 1.3246 1.2992 56.8670 13.3056 2.0734 9.8496 13.0718 19.9388 -5.0410 1.4875 -0.2852 0.0000 0.0000 0.0000 -5.0741 -2.4000 -3.1601 0.7516 18.7633 3.9749 2.3406 -0.1899 -1.9122 -0.0000 -0.0000 -0.0000
-68.8498 41.0028 -1.9724 23.0219 81.5709 24.1400 0.0000 0.0000 0.0000 -2.4867 -6.3859 2.2808 -1.2949 -6.8048 6.3182 3.2372 -0.1184 -8.2522 -0.0000 -0.0000 0.0000 0.0000 0.0000 0.0000 -10.8733 -0.5091 -12.0883 8.6414 -2.3370 19.8459 0.0000 0.0000 0.0000 -1.4321 6.8175 -5.6044 0.0000 0.0000 0.0000 -19.7595 -3.0127 1.7097 -59.0189 -10.3670 -19.0387 -12.3173 -2.2845 34.5850 15.5015 -2.7820 -1.0705 0.0000 0.0000 0.0000 20.4344 1.3891 1.3150 57.0006 13.2861 1.3767 9.9808 12.7880 20.4860 -5.2936 1.4663 -0.2994 0.0000 0.0000 0.0000 -5.0272 -2.3630 -3.1907 0.7652 18.7733 4.0545 2.2805 -0.1855 -1.9254 -0.0000 -0.0000 -0.0000
-68.8847 41.0007 -1.9691 23.1208 81.6286 24.2114 0.0000 0.0000 0.0000 -2.4530 -6.3777 2.2096 -1.3204 -6.8847 6.4272 3.2051 -0.1172 -8.2677 -0.0000 -0.0000 0.0000 0.0000 0.0000 0.0000 -10.9564 -0.5826 -11.9396 8.7314 -2.4386 19.6677 0.0000 0.0000 0.0000 -1.3456 6.9526 -5.7637 0.0000 0.0000 0.0000 -19.7900 -3.0138 1.7099 -58.9113 -10.3382 -19.0245 -12.3191 -2.5095 34.3841 15.3485 -2.7912 -1.0608 0.0000 0.0000 0.0000 20.2659 1.3895 1.3074 57.2414 13.2329 1.4910 9.9363 12.8607 20.2417 -5.3288 1.4493 -0.3008 0.0000 0.0000 0.0000 -4.9990 -2.3616 -3.2432 0.7665 18.6966 4.1004 2.2807 -0.1851 -1.9106 -0.0000 -0.0000 -0.0000
-68.9133 40.9999 -1.9722 23.6094 81.7173 24.6564 0.0000 0.0000 0.0000 -2.4900 -6.4290 2.1751 -1.3193 -6.9508 6.5253 3.1905 -0.1169 -8.2994 -0.0000 -0.0000 0.0000 0.0000 0.0000 0.0000 -11.0875 -0.6965 -12.0333 8.8466 -2.5909 19.8526 0.0000 0.0000 0.0000 -1.3957 7.0163 -5.9349 0.0000 0.0000 0.0000 -19.8898 -2.9979 1.7055 -58.7845 -10.4225 -18.9017 -12.3361 -2.7542 34.1138 15.3713 -2.7337 -1.0552 0.0000 0.0000 0.0000 20.1913 1.3060 1.2818 57.3658 13.2847 2.0729 9.8200 13.1110 19.4573 -5.2212 1.2644 -0.2877 0.0000 0.0000 0.0000 -5.0342 -2.4114 -3.2401 0.7587 18.6401 4.0730 2.3493 -0.1892 -1.8558 -0.0000 -0.0000 -0.0000
-68.9359 40.9994 -1.9777 24.1482 81.7802 25.1552 0.0000 0.0000 0.0000 -2.5552 -6.4920 2.1474 -1.3088 -6.9658 6.6148 3.2041 -0.1182 -8.3374 -0.0000 -0.0000 0.0000 0.0000 0.0000 0.0000 -11.1222 -0.7827 -12.2387 8.8110 -2.6650 20.1527 0.0000 0.0000 0.0000 -1.3997 7.1605 -6.0054 0.0000 0.0000 0.0000 -19.8709 -2.9660 1.7006 -58.7735 -10.5911 -18.7526 -12.3401 -2.8867 34.0403 15.6253 -2.6531 -1.0629 0.0000 0.0000 0.0000 20.3131 1.2618 1.2754 57.2931 13.3616 2.1590 9.8290 13.1273 19.1546 -5.3103 1.0465 -0.2846 0.0000 0.0000 0.0000 -5.0984 -2.4858 -3.2321 0.7723 18.6413 4.0536 2.4018 -0.1923 -1.8067 -0.0000 -0.0000 -0.0000
